<svg width="64" height="64" viewBox="0 0 64 64" fill="none" xmlns="http://www.w3.org/2000/svg">
<style>
  .helmet-body { stroke: #FAFAFA; }
  @media (prefers-color-scheme: light) {
    .helmet-body { stroke: #0a0a0a; }
  }
</style>
<g clip-path="url(#clip0_18_23)">
<path d="M24 37.3333C18.6667 37.3333 15.5553 47.0123 15.9997 50.6667C11.0629 45.8621 8 39.1672 8 31.7621C8 18.0343 18.5259 6.74717 32.0027 5.42066C33.1941 5.30338 33.7899 5.24471 34.2277 5.64199C35.5595 6.85037 34.6656 11.6305 34.6656 13.2318C36.7437 11.4835 40.0304 7.26551 42.8691 6.85442C43.6213 6.74551 44.2133 7.00415 45.3971 7.52138C49.6168 9.36514 53.264 12.263 56 15.879C56 15.879 46.6667 17.3017 45.3317 23.8205" stroke="#DA0030" stroke-width="4" stroke-linejoin="round"/>
<path class="helmet-body" d="M53.7509 33.7547C52.7707 25.8097 47.4024 21.3333 38.6592 21.3333C26.402 21.3333 20.9074 34.7885 25.8941 45.5776C26.5664 47.0323 25.9564 48.9549 25.564 50.4187C24.2775 55.2173 23.6343 57.6168 24.2153 58.1803C24.7963 58.7437 26.8861 58.1323 31.0659 56.9091C34.8256 55.8091 40.1661 52.9688 44.1677 53.4104C46.648 53.6843 53.4264 59.9693 55.5571 58.4219C56.2733 57.9019 56.0192 56.6384 55.5112 54.1117L54.36 48.3845C53.9883 46.5365 53.4901 46.3163 51.6552 45.9333C48.4685 45.2685 46.1163 43.3179 44.9597 41.8771C44.2744 41.0235 44.4096 40.3131 45.1373 39.5381C47.156 37.3888 49.2371 36.7571 51.1427 36.576C53.3269 36.3685 54.0291 36.0069 53.7509 33.7547Z" stroke-width="4"/>
</g>
<defs>
<clipPath id="clip0_18_23">
<rect width="64" height="64" fill="white"/>
</clipPath>
</defs>
</svg>
